<?xml version="1.0" encoding="UTF-8" standalone="no"?>
<!-- Created with Inkscape (http://www.inkscape.org/) -->

<svg
   xmlns:dc="http://purl.org/dc/elements/1.1/"
   xmlns:cc="http://creativecommons.org/ns#"
   xmlns:rdf="http://www.w3.org/1999/02/22-rdf-syntax-ns#"
   xmlns:svg="http://www.w3.org/2000/svg"
   xmlns="http://www.w3.org/2000/svg"
   xmlns:sodipodi="http://sodipodi.sourceforge.net/DTD/sodipodi-0.dtd"
   xmlns:inkscape="http://www.inkscape.org/namespaces/inkscape"
   version="1.1"
   id="svg2"
   xml:space="preserve"
   width="410.89258"
   height="410.89258"
   viewBox="0 0 410.89258 410.89258"
   sodipodi:docname="170412_SixIdeas_BrandStamp_CMYK.ai"
   inkscape:version="0.92.2 5c3e80d, 2017-08-06"><metadata
     id="metadata8"><rdf:RDF><cc:Work
         rdf:about=""><dc:format>image/svg+xml</dc:format><dc:type
           rdf:resource="http://purl.org/dc/dcmitype/StillImage" /><dc:title></dc:title></cc:Work></rdf:RDF></metadata><defs
     id="defs6"><clipPath
       clipPathUnits="userSpaceOnUse"
       id="clipPath54"><path
         d="M 0,453.543 H 453.543 V 0 H 0 Z"
         id="path52"
         inkscape:connector-curvature="0" /></clipPath></defs><sodipodi:namedview
     pagecolor="#ffffff"
     bordercolor="#666666"
     borderopacity="1"
     objecttolerance="10"
     gridtolerance="10"
     guidetolerance="10"
     inkscape:pageopacity="0"
     inkscape:pageshadow="2"
     inkscape:window-width="3373"
     inkscape:window-height="1385"
     id="namedview4"
     showgrid="false"
     fit-margin-top="0"
     fit-margin-left="0"
     fit-margin-right="0"
     fit-margin-bottom="0"
     inkscape:zoom="0.78052136"
     inkscape:cx="-460.04911"
     inkscape:cy="310.21867"
     inkscape:window-x="67"
     inkscape:window-y="27"
     inkscape:window-maximized="1"
     inkscape:current-layer="g10" /><g
     id="g10"
     inkscape:groupmode="layer"
     inkscape:label="170412_SixIdeas_BrandStamp_CMYK"
     transform="matrix(1.3333333,0,0,-1.3333333,-95.581278,528.70911)"><path
       d="m 149.95,291.64252 h -16.145 v -40.326 h 16.145 z"
       style="fill:#4e2984;fill-opacity:1;fill-rule:nonzero;stroke:none"
       id="path12"
       inkscape:connector-curvature="0" /><path
       d="m 149.95,314.65152 h -16.145 v -16.145 h 16.145 z"
       style="fill:#4e2984;fill-opacity:1;fill-rule:nonzero;stroke:none"
       id="path14"
       inkscape:connector-curvature="0" /><path
       d="m 149.95,242.16552 h -16.145 v -64.954 h 16.145 z"
       style="fill:#4e2984;fill-opacity:1;fill-rule:nonzero;stroke:none"
       id="path16"
       inkscape:connector-curvature="0" /><path
       d="m 133.806,152.99552 h 16.145 v 16.145 h -16.145 z"
       style="fill:#4e2984;fill-opacity:1;fill-rule:nonzero;stroke:none"
       id="path18"
       inkscape:connector-curvature="0" /><g
       id="g20"
       transform="translate(187.33,264.18932)"><path
         d="M 0,0 -9.115,13.272 -27.47,-13.249 h 18.232 z"
         style="fill:#4e2984;fill-opacity:1;fill-rule:nonzero;stroke:none"
         id="path22"
         inkscape:connector-curvature="0" /></g><g
       id="g24"
       transform="translate(178.0917,314.62542)"><path
         d="M 0,0 H -18.231 L 25.508,-63.685 H 43.739 Z"
         style="fill:#4e2984;fill-opacity:1;fill-rule:nonzero;stroke:none"
         id="path26"
         inkscape:connector-curvature="0" /></g><g
       id="g28"
       transform="translate(204.0253,314.41492)"><path
         d="M 0,0 -9.238,-13.249 -0.123,-26.521 18.231,0 Z"
         style="fill:#4e2984;fill-opacity:1;fill-rule:nonzero;stroke:none"
         id="path30"
         inkscape:connector-curvature="0" /></g><g
       id="g32"
       transform="translate(293.4178,210.16352)"><path
         d="M 0,0 4.312,12.042 19.925,-33.115 H 36.632 L 12.145,32.002 H -3.56 L -15.768,0 Z"
         style="fill:#4e2984;fill-opacity:1;fill-rule:nonzero;stroke:none"
         id="path34"
         inkscape:connector-curvature="0" /></g><g
       id="g36"
       transform="translate(233.9052,177.04532)"><path
         d="m 0,0 h 7.361 l 0.001,0.004 h 21.652 l 5.059,14.13 H 2.854 V 14.13 H 0 Z"
         style="fill:#4e2984;fill-opacity:1;fill-rule:nonzero;stroke:none"
         id="path38"
         inkscape:connector-curvature="0" /></g><g
       id="g40"
       transform="translate(233.9052,202.56342)"><path
         d="M 0,0 H 19.703 L 24.71,13.908 H 0 Z"
         style="fill:#4e2984;fill-opacity:1;fill-rule:nonzero;stroke:none"
         id="path42"
         inkscape:connector-curvature="0" /></g><g
       id="g44"
       transform="translate(267.8309,242.09222)"><path
         d="M 0,0 H -33.926 V -14.127 H -5.07 Z"
         style="fill:#4e2984;fill-opacity:1;fill-rule:nonzero;stroke:none"
         id="path46"
         inkscape:connector-curvature="0" /></g><g
       id="g48"
       transform="translate(0,15.675522)"><g
         id="g50"
         clip-path="url(#clipPath54)"><g
           id="g56"
           transform="translate(377.4354,190.9196)"><path
             d="m 0,0 c -1.562,2.357 -3.446,4.268 -5.6,5.684 -2.116,1.39 -4.283,2.419 -6.441,3.057 -2.117,0.626 -3.726,1.045 -4.854,1.267 -3.858,0.981 -6.987,1.785 -9.377,2.421 -2.318,0.615 -4.138,1.23 -5.414,1.828 -1.393,0.65 -1.953,1.223 -2.181,1.594 -0.333,0.536 -0.501,1.3 -0.501,2.269 0,1.064 0.22,1.933 0.651,2.582 0.483,0.723 1.083,1.312 1.835,1.798 0.761,0.489 1.622,0.838 2.559,1.037 2.615,0.547 5.243,0.351 7.403,-0.089 1.258,-0.258 2.381,-0.695 3.338,-1.299 0.92,-0.583 1.641,-1.364 2.201,-2.391 0.569,-1.038 0.911,-2.404 1.016,-4.056 l 0.076,-1.196 H 0.343 v 1.277 c 0,3.775 -0.736,7.051 -2.189,9.74 -1.443,2.673 -3.425,4.902 -5.888,6.628 -2.432,1.7 -5.242,2.944 -8.351,3.701 -5.699,1.383 -12.082,1.624 -18.248,-0.054 -2.905,-0.786 -5.548,-2.016 -7.852,-3.652 -2.336,-1.661 -4.248,-3.76 -5.687,-6.243 -1.464,-2.522 -2.207,-5.52 -2.207,-8.908 0,-3.027 0.59,-5.662 1.752,-7.83 1.149,-2.144 2.68,-3.957 4.548,-5.387 1.822,-1.4 3.911,-2.553 6.207,-3.427 2.22,-0.849 4.541,-1.578 6.86,-2.155 2.27,-0.641 4.506,-1.222 6.718,-1.747 2.118,-0.501 4.037,-1.094 5.706,-1.76 1.564,-0.625 2.838,-1.408 3.783,-2.327 0.817,-0.795 1.214,-1.826 1.214,-3.153 0,-0.798 -0.165,-1.456 -0.41,-2.054 H 2.094 C 2.295,-11.67 2.42,-10.469 2.42,-9.232 2.42,-5.531 1.605,-2.425 0,0"
             style="fill:#4e2984;fill-opacity:1;fill-rule:nonzero;stroke:none"
             id="path58"
             inkscape:connector-curvature="0" /></g><g
           id="g60"
           transform="translate(158.58,161.1017)"><path
             d="m 0,0 h 27.937 c 4.896,0 9.224,0.84 12.864,2.496 3.651,1.658 6.743,3.971 9.19,6.873 2.439,2.89 4.283,6.363 5.484,10.32 1.184,3.917 1.785,8.235 1.785,12.835 0,0.396 -0.033,0.765 -0.042,1.154 H 40.992 c 0.048,-0.812 0.125,-1.595 0.125,-2.451 0,-3.238 -0.411,-6.002 -1.221,-8.217 C 39.098,20.827 38.029,19.043 36.719,17.708 35.427,16.387 33.935,15.43 32.283,14.863 30.58,14.277 28.798,13.98 26.985,13.98 H 16.145 V 33.678 H 0 Z"
             style="fill:#4e2984;fill-opacity:1;fill-rule:nonzero;stroke:none"
             id="path62"
             inkscape:connector-curvature="0" /></g><g
           id="g64"
           transform="translate(110.7762,235.3757)"><path
             d="m 0,0 c 3.351,1.024 6.204,2.485 8.482,4.34 2.31,1.878 4.077,4.146 5.251,6.743 1.166,2.579 1.757,5.407 1.757,8.402 0,3.701 -0.814,6.807 -2.421,9.232 -1.56,2.357 -3.446,4.268 -5.599,5.683 -2.116,1.391 -4.283,2.419 -6.442,3.058 -2.117,0.626 -3.725,1.045 -4.852,1.267 -3.86,0.981 -6.988,1.785 -9.378,2.421 -2.319,0.615 -4.139,1.23 -5.414,1.828 -1.393,0.65 -1.953,1.223 -2.181,1.593 -0.333,0.537 -0.502,1.301 -0.502,2.27 0,0.553 0.067,1.048 0.184,1.492 h -15.728 c -0.105,-0.845 -0.166,-1.715 -0.166,-2.617 0,-3.027 0.59,-5.662 1.752,-7.83 1.15,-2.144 2.679,-3.957 4.547,-5.387 1.823,-1.4 3.911,-2.554 6.207,-3.428 2.221,-0.847 4.541,-1.577 6.86,-2.154 2.27,-0.641 4.507,-1.222 6.719,-1.747 2.118,-0.501 4.037,-1.094 5.705,-1.759 1.566,-0.626 2.838,-1.409 3.783,-2.328 0.817,-0.795 1.215,-1.826 1.215,-3.152 0,-1.272 -0.305,-2.271 -0.932,-3.055 -0.683,-0.853 -1.55,-1.534 -2.583,-2.025 -1.088,-0.52 -2.277,-0.876 -3.53,-1.059 -3.219,-0.471 -5.959,-0.363 -8.585,0.32 -1.511,0.39 -2.837,0.991 -3.942,1.79 -1.089,0.784 -1.939,1.784 -2.602,3.059 l -0.001,10e-4 c -0.649,1.249 -0.98,2.826 -0.98,4.689 v 1.277 h -15.691 l -0.02,-1.258 c -0.059,-4.008 0.688,-7.533 2.223,-10.477 1.528,-2.935 3.622,-5.385 6.222,-7.279 2.573,-1.878 5.573,-3.27 8.913,-4.142 3.296,-0.859 6.739,-1.295 10.234,-1.295 4.316,0 8.184,0.513 11.495,1.527"
             style="fill:#4e2984;fill-opacity:1;fill-rule:nonzero;stroke:none"
             id="path66"
             inkscape:connector-curvature="0" /></g><g
           id="g68"
           transform="translate(347.1122,167.8654)"><path
             d="M 0,0 V -66.735 H -241.062 V 48.091 H -253.83 V -79.503 H 12.769 V 0 Z"
             style="fill:#4e2984;fill-opacity:1;fill-rule:nonzero;stroke:none"
             id="path70"
             inkscape:connector-curvature="0" /></g><g
           id="g72"
           transform="translate(106.0507,352.4128)"><path
             d="M 0,0 H 241.062 V -105.706 H 253.83 V 12.768 H -12.769 V -53.144 H 0 Z"
             style="fill:#4e2984;fill-opacity:1;fill-rule:nonzero;stroke:none"
             id="path74"
             inkscape:connector-curvature="0" /></g></g></g></g></svg>